<svg
  viewBox="0 0 1024 1024"
  version="1.1"
  xmlns="http://www.w3.org/2000/svg">
  <path
    d="M86 923.329c-17.673 0-32-14.327-32-32 0-17.497 14.042-31.713 31.47-31.996l0.53-0.004 53.299-0.001 0.001-266.794c0-17.496 14.042-31.713 31.47-31.995l0.53-0.005h127.95c17.673 0 32 14.327 32 32l-0.001 266.794h85.276V379.11c0-17.497 14.042-31.714 31.47-31.996l0.53-0.004h127.95c17.673 0 32 14.326 32 32v480.218h85.274L693.75 123c0-17.496 14.042-31.713 31.47-31.996l0.53-0.004H853.7c17.673 0 32 14.327 32 32l-0.001 736.328H939c17.673 0 32 14.328 32 32 0 17.497-14.042 31.714-31.47 31.996l-0.53 0.005H86z"></path>
</svg>
