<svg
  viewBox="0 0 1024 1024"
  version="1.1"
  xmlns="http://www.w3.org/2000/svg">
  <path
    d="M339.2 691.2c-25.6-32-38.4-76.8-38.4-121.6 0-115.2 96-211.2 211.2-211.2s211.2 96 211.2 211.2c0 44.8-12.8 89.6-38.4 121.6l57.6 25.6c25.6-44.8 44.8-96 44.8-147.2 0-153.6-121.6-275.2-275.2-275.2s-275.2 128-275.2 275.2c0 57.6 12.8 108.8 44.8 147.2l57.6-25.6z"></path>
  <path
    d="M230.4 748.8c-32-51.2-51.2-108.8-51.2-179.2 0-185.6 147.2-332.8 332.8-332.8S844.8 384 844.8 569.6c0 64-19.2 128-51.2 179.2l76.8 44.8c38.4-64 64-140.8 64-224 0-236.8-192-422.4-422.4-422.4S89.6 339.2 89.6 569.6c0 83.2 25.6 160 64 224l76.8-44.8z"></path>
  <path d="M569.6 768c6.4-32 25.6-332.8 25.6-332.8S460.8 704 454.4 742.4c-6.4 32 6.4 64 44.8 70.4 25.6 6.4 64-6.4 70.4-44.8z"></path>
</svg>
