<svg
  viewBox="0 0 1024 1024"
  version="1.1"
  xmlns="http://www.w3.org/2000/svg">
  <path
    d="M128 443.40736h56.832v169.984h64v-169.984h56.832v-64H128v64zM708.608 379.40736h-77.312l-29.184 54.784-32.256-54.784h-76.8l69.12 111.616-74.24 119.808v-61.44h-107.52v-28.672h97.28v-59.392h-97.28v-17.92h103.936v-64H316.928v233.984h246.784l35.84-59.904 35.84 59.904h80.896l-76.8-118.784 69.12-115.2zM717.312 379.40736v64h56.832v169.984h64v-169.984h56.832v-64h-177.664zM128 696.49408v37.888h41.472v118.784h43.008v-118.784h41.984v-37.888H128zM308.224 811.69408v-21.504h67.584v-41.472H308.224v-14.848h74.24v-37.888h-117.76v156.672h120.832v-41.472H308.224zM494.08 773.29408l47.616-76.8h-51.2l-23.552 36.352-23.552-36.352H391.68l47.616 73.728-50.176 82.944h51.2l27.136-42.496 27.136 42.496h51.712l-52.224-79.872zM548.352 696.49408v37.888h41.472v118.784h43.008v-118.784h41.472v-37.888h-125.952zM440.40704 207.36h29.184V296.96h41.984V207.36h29.184v-35.84h-100.352v35.84zM549.97504 296.96h96.768v-35.84h-58.368v-13.312h54.784v-35.84h-54.784v-5.12h58.368v-35.84h-96.768V296.96zM784.98304 171.52h-47.104l-15.872 25.6-15.872-25.6h-47.104l39.424 60.928-43.52 64.512h47.104l19.456-29.696 19.456 29.696h47.104l-43.008-64.512 39.936-60.928zM794.71104 171.52v35.84h29.184V296.96h38.4V207.36h33.28v-35.84h-100.864z"></path>
</svg>
