<svg
  viewBox="0 0 1024 1024"
  version="1.1"
  xmlns="http://www.w3.org/2000/svg">
  <path
    d="M550.016 65.184c193.76 43.392 349.44 178.272 403.872 353.44l0.8 2.592c7.04 22.656 13.728 44.128 15.488 63.264 2.08 22.656-2.464 43.456-17.376 63.584-15.872 21.408-36.96 31.104-60.736 35.36a177.28 177.28 0 0 1-14.688 1.984c-13.888 176.896-148.832 321.024-326.368 370.272l-2.528 0.704c-23.424 6.496-45.344 12.576-64.608 13.952-22.56 1.6-43.328-2.976-63.2-17.984-21.056-15.904-30.496-36.928-34.656-60.48a112.352 112.352 0 0 1-0.768-4.736c-134.976-9.568-250.88-85.056-305.696-193.152l-1.344-2.624c-9.472-18.688-19.2-37.824-23.04-56.448-4.736-23.008-0.64-44.192 12.768-65.856 14.848-24 35.584-35.968 60.576-41.312 4.96-1.056 10.208-1.888 15.68-2.496 15.104-114.848 115.968-202.144 238.144-215.296V208.736c0-29.184 0-54.976 3.488-75.744 3.904-23.136 12.704-44.096 32.928-60.192 19.296-15.36 39.936-20.192 62.304-19.392 19.392 0.672 41.92 5.728 66.432 11.2l2.496 0.544zM446.4 587.2h-0.032v232.096c0.032 29.056 0.288 47.648 2.72 61.44 2.24 12.736 5.632 17.088 10.208 20.544 5.76 4.352 10.624 5.888 20.096 5.216 12.064-0.864 27.68-5.024 54.56-12.48 153.472-42.56 264.512-163.584 279.04-306.816H446.432z m-64.032-64v-148.832c-89.664 12.032-157.568 73.888-172.864 148.832h172.864z m436.32 0c29.44-0.032 48.224-0.288 62.08-2.784 12.64-2.272 17.088-5.696 20.64-10.496 4.512-6.112 5.856-10.848 5.024-19.616-1.056-11.584-5.536-26.496-13.664-52.672-46.88-150.784-182.656-271.008-356.768-309.984-27.84-6.24-44.448-9.824-57.12-10.272-10.368-0.352-15.2 1.504-20.256 5.536-4.096 3.264-7.456 7.648-9.664 20.704-2.496 14.848-2.592 35.168-2.592 67.648v96.992h0.032v214.976h372.288z m-615.52 64c-29.824 0.032-48.032 0.32-61.28 3.136-10.976 2.336-15.36 5.696-19.488 12.384-5.568 8.992-5.664 13.664-4.512 19.296 1.888 9.152 7.36 20.544 18.752 43.008 42.912 84.608 134.784 147.424 245.696 157.664V587.232h-179.2z"></path>
</svg>
