<svg
  viewBox="0 0 1024 1024"
  version="1.1"
  xmlns="http://www.w3.org/2000/svg">
  <path
    d="M460.8 160H320V96h64c16 0 32-16 32-32s-16-32-32-32H192c-16 0-32 16-32 32s16 32 32 32h64v64H115.2C86.4 160 64 182.4 64 211.2v604.8c0 25.6 22.4 48 51.2 48H256v64H192c-16 0-32 16-32 32s16 32 32 32h192c16 0 32-16 32-32s-16-32-32-32h-64v-64h140.8c28.8 0 51.2-22.4 51.2-51.2V211.2c0-28.8-22.4-51.2-51.2-51.2zM448 800H128v-192h320v192z m0-256H128V224h320v320zM908.8 220.8h-118.4v-64h64c16 0 32-16 32-32 0-19.2-16-32-32-32h-192c-16 0-32 12.8-32 32 0 16 16 32 32 32h64v64H608c-28.8 0-51.2 22.4-51.2 51.2v428.8c0 28.8 22.4 51.2 51.2 51.2h118.4v64h-64c-16 0-32 12.8-32 32 0 16 16 32 32 32h192c16 0 32-16 32-32 0-19.2-16-32-32-32h-64v-64h118.4c28.8 0 51.2-22.4 51.2-51.2V272c0-28.8-22.4-51.2-51.2-51.2z m-12.8 64v105.6h-275.2V284.8H896z m-275.2 400V448H896v236.8h-275.2z"></path>
</svg>
