<svg
  viewBox="0 0 1024 1024"
  version="1.1"
  xmlns="http://www.w3.org/2000/svg">
  <path
    d="M312.329309 657.687273 197.557527 657.687273c-28.001745 0-50.762473 23.468218-50.762473 52.307782l0 215.151709c0 28.839564 22.760727 52.307782 50.762473 52.307782l114.771782 0c28.001745 0 50.771782-23.468218 50.771782-52.307782L363.101091 709.995055C363.1104 681.155491 340.331055 657.687273 312.329309 657.687273L312.329309 657.687273zM330.435491 925.146764c0 10.826473-8.126836 19.632873-18.106182 19.632873L197.557527 944.779636c-9.970036 0-18.087564-8.8064-18.087564-19.632873L179.469964 709.995055c0-10.835782 8.117527-19.642182 18.087564-19.642182l114.771782 0c9.988655 0 18.106182 8.8064 18.106182 19.642182L330.435491 925.146764 330.435491 925.146764zM330.435491 925.146764"
    fill="#272635"></path>
  <path
    d="M574.557091 500.540509 459.552582 500.540509c-28.029673 0-50.846255 23.700945-50.846255 52.847709l0 371.227927c0 29.128145 22.807273 52.8384 50.846255 52.8384L574.557091 977.454545c28.029673 0 50.846255-23.710255 50.846255-52.8384L625.403345 553.388218C625.394036 524.250764 602.586764 500.540509 574.557091 500.540509L574.557091 500.540509zM592.728436 924.616145c0 11.124364-8.154764 20.1728-18.171345 20.1728L459.552582 944.788945c-10.016582 0-18.171345-9.048436-18.171345-20.1728L441.381236 553.388218c0-11.133673 8.154764-20.182109 18.171345-20.182109L574.557091 533.206109c10.016582 0 18.171345 9.039127 18.171345 20.182109L592.728436 924.616145 592.728436 924.616145zM592.728436 924.616145"
    fill="#272635"></path>
  <path
    d="M862.785164 369.626764 748.004073 369.626764c-28.001745 0-50.762473 23.877818-50.762473 53.210764l0 501.396945c0 29.342255 22.760727 53.220073 50.762473 53.220073l114.771782 0c27.992436 0 50.762473-23.877818 50.762473-53.220073L913.538327 422.837527C913.547636 393.504582 890.7776 369.626764 862.785164 369.626764L862.785164 369.626764zM880.872727 924.234473c0 11.329164-8.117527 20.545164-18.087564 20.545164L748.004073 944.779636c-9.979345 0-18.087564-9.216-18.087564-20.545164L729.916509 422.837527c0-11.319855 8.117527-20.545164 18.087564-20.545164l114.771782 0c9.970036 0 18.087564 9.225309 18.087564 20.545164L880.872727 924.234473 880.872727 924.234473zM880.872727 924.234473"
    fill="#272635"></path>
  <path
    d="M848.151273 145.417309l49.179927 49.4592L897.3312 46.545455 749.791418 46.545455l49.179927 49.440582L528.4864 343.179636 380.946618 194.8672 110.452364 442.051491l49.179927 49.431273 221.305018-197.743709 147.539782 148.312436L848.151273 145.417309zM848.151273 145.417309"
    fill="#272635"></path>
</svg>
